<svg width="100" height="100" viewBox="0 0 100 100" fill="none" xmlns="http://www.w3.org/2000/svg">
  <!-- Star background -->
  <path d="M50 10L60 35L85 35L67 52L77 77L50 62L23 77L33 52L15 35L40 35Z" 
        fill="#10B981" stroke="#059669" stroke-width="2"/>
  
  <!-- Inner star glow -->
  <path d="M50 18L57 38L77 38L63 49L70 69L50 57L30 69L37 49L23 38L43 38Z" 
        fill="url(#starGradient)" opacity="0.6"/>
  
  <!-- Checkmark -->
  <path d="M38 48L46 56L62 40" 
        stroke="#FFFFFF" stroke-width="4" stroke-linecap="round" stroke-linejoin="round"/>
  
  <!-- Certificate ribbon -->
  <path d="M35 75L50 85L65 75V90L50 95L35 90Z" 
        fill="#059669" stroke="#047857" stroke-width="1"/>
  
  <defs>
    <radialGradient id="starGradient" cx="50%" cy="50%" r="50%">
      <stop offset="0%" style="stop-color:#34D399;stop-opacity:1" />
      <stop offset="100%" style="stop-color:#10B981;stop-opacity:0" />
    </radialGradient>
  </defs>
</svg>
