<?xml version="1.0" encoding="UTF-8" standalone="no"?>
<!-- Created with Inkscape (http://www.inkscape.org/) -->

<svg
   width="701.14844"
   height="701.15039"
   viewBox="0 0 701.14844 701.15039"
   version="1.1"
   id="svg1"
   xmlns:xlink="http://www.w3.org/1999/xlink"
   xmlns="http://www.w3.org/2000/svg"
   xmlns:svg="http://www.w3.org/2000/svg">
  <defs
     id="defs1">
    <linearGradient
       id="linearGradient4"
       x1="4"
       y1="4"
       x2="252"
       y2="252"
       gradientUnits="userSpaceOnUse"
       gradientTransform="matrix(2.2177422,0,0,2.2177422,71.128995,50.060009)">
      <stop
         offset="0%"
         stop-color="#3B82F6"
         id="stop1" />
      <stop
         offset="100%"
         stop-color="#9333EA"
         id="stop2" />
    </linearGradient>
  </defs>
  <path
     style="font-size:931.355px;line-height:1;font-family:'Bauhaus 93';-inkscape-font-specification:'Bauhaus 93, Normal';text-align:center;letter-spacing:0px;word-spacing:0px;text-anchor:middle;display:inline;fill:url(#linearGradient4);fill-opacity:1;stroke-width:167.141;stroke-linecap:round;paint-order:fill markers stroke"
     d="M 452.10119,18.384863 C 683.28768,202.08358 715.88893,345.73416 658.83308,471.30385 644.8871,469.26945 459.9194,189.92431 452.76561,191.25342 c -13.71143,2.54747 -24.54393,9.80224 -32.49748,21.76431 -7.95355,11.96206 -10.60121,25.09687 -7.94298,39.40446 2.27057,12.22105 10.51566,26.7241 24.73526,43.50913 l 18.34622,21.56888 c 33.1237,38.86698 53.45137,78.56955 60.98301,119.10769 11.02057,59.31684 -0.81125,113.47436 -35.49543,162.47257 -34.38611,48.94282 -81.98278,79.06297 -142.78999,90.36043 -29.2113,5.42721 -59.37058,4.09237 -90.47782,-4.00454 C 16.359065,555.5071 11.182632,382.90261 47.594853,223.41664 c 19.337377,7.81674 202.931807,295.8896 216.345157,293.39751 15.79795,-2.93512 28.08254,-9.84295 36.85375,-20.72347 9.01392,-11.23398 12.24715,-23.70669 9.69968,-37.41812 -1.66139,-8.94224 -13.78389,-26.8878 -36.36749,-53.83668 -35.98554,-42.65238 -58.40868,-87.82454 -67.26944,-135.51646 -10.68828,-57.52839 0.5368,-110.80227 33.67522,-159.82166 33.38113,-49.372846 78.53782,-79.348027 135.47006,-89.925552 25.03826,-4.651894 50.40473,-5.047674 76.0994,-1.187345 z"
     id="text27-5"
     aria-label="S" />
  <path
     id="text27-0-9"
     style="font-size:931.355px;line-height:1;font-family:'Bauhaus 93';-inkscape-font-specification:'Bauhaus 93, Normal';text-align:center;letter-spacing:0px;word-spacing:0px;text-anchor:middle;display:inline;fill:#000000;fill-opacity:1;stroke:none;stroke-width:167.141;stroke-linecap:round;paint-order:fill markers stroke"
     d="M 350.57423,0 C 156.9575,1.48e-4 1.5100412e-4,156.95749 0,350.57422 -9.2799588e-4,544.19172 156.95673,701.15024 350.57423,701.15039 544.19173,701.15024 701.14938,544.19172 701.14845,350.57422 701.1483,156.95749 544.19096,1.49e-4 350.57423,0 Z m -2.95703,44.078125 c 5.71052,-0.03621 11.42228,0.07265 17.12696,0.333985 -48.16207,11.92634 -90.85545,44.080876 -114.92969,87.96289 -42.25672,67.26795 -27.39754,155.29291 15.51953,218.29102 21.66404,36.60137 62.58457,64.36916 67.35156,109.08789 2.67889,43.71641 -39.84359,83.28419 -82.7539,79.63086 -30.27548,-14.02393 -44.40298,-47.95569 -65.00391,-72.5957 C 142.05599,406.07504 96.038362,338.26141 52.851563,277.74024 c 0.534303,-2.18376 1.090519,-4.35617 1.666015,-6.5 6.859766,-25.66487 17.126505,-50.49299 30.359374,-73.47071 10.99874,-19.10948 24.044598,-37.04589 38.890638,-53.3496 1.36619,-1.51325 2.84966,-3.08835 4.1875,-4.52149 9.48478,-10.00304 19.63384,-19.37935 30.36719,-28.0293 1.6033,-1.29713 3.32365,-2.64579 4.88867,-3.86523 2.42442,-1.86174 4.86283,-3.7047 7.33985,-5.49609 1.45095,-1.06728 3.03382,-2.17723 4.43554,-3.169932 14.24089,-9.963382 29.34011,-18.697516 45.07227,-26.083982 2.74667,-1.29901 5.59359,-2.577485 8.43945,-3.816406 1.22108,-0.534225 2.7407,-1.16953 3.95899,-1.6875 1.78875,-0.72781 3.48953,-1.443298 5.24804,-2.126953 1.88242,-0.757049 3.89862,-1.513104 5.72266,-2.203125 9.83052,-3.663207 19.84881,-6.818298 29.99805,-9.472656 4.35914,-1.121122 8.94311,-2.224657 13.42773,-3.169922 1.88347,-0.415339 3.90258,-0.802924 5.71484,-1.164063 9.05656,-1.744737 18.19077,-3.085175 27.36719,-4.011718 2.38394,-0.231962 4.60015,-0.430013 6.97852,-0.611328 2.61336,-0.198574 5.09094,-0.359256 7.68359,-0.492188 4.30777,-0.207032 8.6498,-0.373342 13.01953,-0.419922 z m 98.92969,115.332035 c 2.28512,-0.0354 4.59268,0.0684 6.91602,0.31836 24.61815,11.10215 35.55629,38.68368 52.22851,58.5957 45.65624,64.25237 144.79565,197.06211 144.42961,198.79817 -0.36604,1.73606 -1.16598,3.60906 -1.80661,6.22332 -3.85202,15.74085 -8.93323,31.1198 -15.20899,46.08007 -2.7141,6.45155 -5.74726,13.04215 -8.96093,19.38282 -2.96708,5.87946 -6.16528,11.72277 -9.53711,17.43945 -5.17301,8.77741 -10.8789,17.42493 -16.79688,25.48438 -12.29782,16.7932 -26.30284,32.33344 -41.75586,46.27929 -1.09128,0.98194 -2.30126,2.05149 -3.33008,2.96485 -13.91109,12.18014 -28.9047,23.12354 -44.77343,32.61523 -28.05241,16.82226 -58.93942,29.09279 -90.80274,36.16602 -15.27975,3.39214 -30.81351,5.65135 -46.43359,6.66796 -4.2358,0.27313 -8.64741,0.47216 -12.90039,0.56836 -3.20318,0.0746 -6.40335,0.10094 -9.59961,0.0762 49.22564,-12.60941 90.6782,-49.22608 116.12109,-99.3125 39.29449,-69.00231 21.30676,-158.43047 -28.9414,-216.96094 -27.07603,-33.21908 -65.95579,-68.79378 -57.56836,-116.12891 5.1088,-33.08705 34.44394,-64.72705 68.7207,-65.25781 z" />
</svg>
